<svg width="192" height="7" viewBox="0 0 192 7" fill="none" xmlns="http://www.w3.org/2000/svg">
<path d="M176.057 6.32329C176.49 6.63896 175.042 6.43203 176.004 6.90346C175.803 6.93531 175.602 6.96816 175.401 7.00002C175.35 6.82542 175.298 6.65126 175.247 6.47666C175.517 6.42525 175.786 6.37385 176.057 6.32244C176.057 6.32272 176.057 6.32301 176.057 6.32329ZM176.424 4.13675C176.178 4.63473 175.393 4.7675 176.241 5.22703C176.308 5.05613 176.377 4.88526 176.444 4.71436C176.738 4.84691 177.034 4.97943 177.328 5.11125C177.434 5.0461 177.54 4.98087 177.645 4.91644C177.78 5.21342 177.913 5.51121 178.048 5.80891C177.929 5.76545 177.807 5.72122 177.688 5.67775C177.215 5.91892 176.794 5.98488 176.153 6.02979C176.209 6.10006 176.265 6.16971 176.322 6.23998C175.996 6.12046 175.671 6.00064 175.346 5.88111C175.628 5.76379 175.943 5.63331 176.204 5.52395C175.786 5.0583 175.049 5.31746 174.666 5.41458C174.144 5.54715 174.262 5.32574 173.874 5.41843C173.812 5.43292 173.805 5.60647 173.683 5.6094C173.066 5.62316 171.867 5.53117 172.568 5.12621C173.584 5.17837 174.45 4.85317 175.447 4.97198C175.183 4.50372 175.708 4.34438 176.424 4.13675ZM157.765 5.62777C158.073 5.40035 158.7 5.49212 159.125 5.64998C159.125 5.64998 159.126 5.64998 159.126 5.64998C159.22 5.68476 159.431 5.98699 159.126 5.97467C158.629 5.95357 158.388 5.47782 158.127 5.80079C158.01 5.74067 157.888 5.68717 157.765 5.62777ZM156.684 5.65596C156.379 5.53933 156.517 5.18085 156.899 5.27787C156.899 5.27759 156.899 5.2773 156.899 5.27702C157.059 5.31758 156.746 5.60094 157.318 5.31333C157.434 5.53708 157.549 5.74065 157.665 5.95716C157.525 5.96078 157.397 5.96665 157.25 5.96955C157.349 5.60176 156.989 5.77168 156.684 5.65596ZM172.053 5.32871C172.005 5.65958 172.205 5.65749 172.548 5.88709C172.225 5.87623 171.902 5.86464 171.58 5.85377C171.738 5.67853 171.895 5.50395 172.053 5.32871ZM179.64 5.37998C179.64 5.37998 179.641 5.37998 179.641 5.37998C179.747 5.32782 179.853 5.27547 179.958 5.22404C180.021 5.34213 180.083 5.4597 180.146 5.57778C180.52 5.46694 180.896 5.35611 181.27 5.24455C181.225 5.60526 180.554 5.54657 180.184 5.79866C179.634 5.68999 179.369 5.48061 179.334 5.17491C179.435 5.24298 179.537 5.31191 179.64 5.37998ZM89.7321 3.94193C89.6071 4.04188 89.4836 4.1419 89.3586 4.24184C89.5248 4.28746 89.6897 4.32227 89.8573 4.37514C90.2957 3.94053 90.3369 4.32497 90.9113 4.29824C92.6719 4.21565 92.2048 3.54063 93.7948 4.52937C92.5182 4.48233 93.0088 4.94692 92.2392 5.30478C92.0798 5.03239 92.8424 4.41805 92.3256 4.29055C91.4351 4.57883 90.5788 4.84733 89.5907 5.03349C89.6196 5.08057 89.6483 5.12782 89.6772 5.1749C89.8339 5.1452 89.9892 5.11532 90.1459 5.08561C89.9769 5.21167 89.8116 5.33663 89.6398 5.46413C89.8569 5.17801 89.3036 5.33789 89.3776 5.00914C89.4106 4.8628 89.6552 4.65979 89.7995 4.51997C89.4271 4.44392 89.0451 4.37425 88.6686 4.30037C88.8637 4.18379 89.0586 4.06706 89.2524 3.95048C89.4117 3.94686 89.5698 3.94427 89.7292 3.94065C89.7301 3.94108 89.7311 3.9415 89.7321 3.94193ZM9.57891 5.46327C10.0517 5.12278 10.9109 5.06644 11.3631 5.44533C10.768 5.45113 10.174 5.45748 9.57891 5.46327ZM179.298 4.92285C179.351 4.98073 179.403 5.03799 179.457 5.09587C179.22 5.20307 178.982 5.30953 178.746 5.41672C178.701 5.24944 178.654 5.08214 178.608 4.91559C178.837 4.91776 179.068 4.92068 179.298 4.92285ZM164.176 5.10912C164.349 5.09899 164.364 5.10448 164.58 5.12834C164.579 5.1282 164.579 5.12806 164.579 5.12791C164.664 5.13683 165.378 5.23453 165.299 5.36332C164.944 5.36549 164.566 5.36332 164.203 5.36332C164.192 5.2786 164.19 5.19455 164.176 5.10912ZM168.35 5.18431C168.351 5.18459 168.351 5.18488 168.352 5.18516C168.481 5.20473 168.603 5.24455 168.736 5.25181C168.257 5.4545 168.181 5.09085 167.745 5.19371C167.31 5.2973 167.04 5.49794 166.671 4.99975C166.808 4.92513 166.956 4.81838 167.098 4.73145C167.716 4.93065 167.883 4.74319 168.379 4.54689C168.369 4.75984 168.36 4.97135 168.35 5.18431ZM97.5705 4.94976C97.6886 4.70347 97.8204 4.94513 97.8341 4.94805C97.8339 4.94833 97.8337 4.94862 97.8334 4.9489C98.8803 4.72081 97.6972 5.08523 98.6852 5.12364C98.5382 5.18519 98.3936 5.25019 98.248 5.31247C98.0226 5.1937 97.7903 5.05911 97.5705 4.94976ZM131.586 4.97283C131.596 5.04455 131.607 5.11643 131.617 5.18815C131.023 5.17149 130.872 5.45383 130.379 5.1967C130.781 5.12137 131.184 5.04658 131.586 4.97197C131.586 4.97226 131.586 4.97254 131.586 4.97283ZM161.183 4.58748C161.842 4.45056 162.329 4.39023 162.961 4.60755C162.961 4.60784 162.962 4.60812 162.962 4.60841C162.999 4.62179 162.823 4.77183 162.87 4.80963C163.001 4.78719 163.135 4.75269 163.267 4.7259C163.285 4.84605 163.302 4.96618 163.32 5.08562C162.949 5.05158 162.578 5.01756 162.205 4.98351C162.26 5.05378 162.316 5.12344 162.371 5.19371C162.055 5.22992 161.74 5.26601 161.424 5.30222C161.534 5.10524 161.644 4.90822 161.752 4.71052C161.563 4.66924 161.373 4.62948 161.183 4.58748ZM121.702 4.18802C121.806 4.26626 121.613 4.39748 121.775 4.46486C121.937 4.53138 122.236 4.38537 122.166 4.60627C121.948 4.63595 121.718 4.66999 121.496 4.70111C122.212 5.09945 122.926 4.739 122.937 5.23087C122.25 5.10337 121.685 5.16261 121.02 5.2988C121.047 4.90836 121.713 4.57078 121.294 4.20425C121.428 4.19918 121.57 4.19177 121.7 4.18887C121.701 4.18859 121.701 4.1883 121.702 4.18802ZM188.916 0.026852C189.323 0.0565542 190.255 -0.10279 190.769 0.124686C190.895 0.180745 191.317 0.906913 191.314 1.00263C191.302 1.32501 190.788 1.36888 191.339 1.57896C191.153 1.58114 190.973 1.59324 190.789 1.59904C190.822 1.81565 190.855 2.03168 190.887 2.24757C191.111 2.21497 191.335 2.1822 191.559 2.14888C191.57 2.2206 191.581 2.29248 191.592 2.3642C190.787 2.36565 191.262 2.64246 190.844 2.90037C191.229 3.03074 191.617 3.16048 192 3.29085C191.779 3.27492 191.518 3.26311 191.323 3.24428C191.296 3.61154 191.762 3.52398 191.842 3.59204C192.291 3.9767 190.003 3.78256 189.816 4.31704C190.181 4.37644 190.565 4.43439 190.939 4.49306C190.832 4.55898 190.723 4.62494 190.616 4.69087C189.768 4.32222 188.817 4.19163 187.829 3.96202C187.74 3.97722 187.65 3.99283 187.562 4.00731C187.588 4.17314 187.613 4.33834 187.639 4.50417C187.505 4.52373 187.368 4.54314 187.233 4.5627C187.631 4.01652 187.081 4.02397 186.417 3.69073C186.77 3.49879 187.206 3.61516 187.176 3.25753C185.963 3.53268 184.544 3.14382 183.365 3.45448C183.072 3.53125 183.073 3.99261 182.385 3.95006C182.408 3.89935 182.412 3.80779 182.427 3.74114C181.237 3.9621 180.515 4.09419 179.278 3.86888C179.349 4.0347 179.42 4.20121 179.491 4.36703C179.754 4.28444 180.016 4.20054 180.278 4.11796C180.456 4.39177 180.192 4.51262 180.976 4.50972C181.617 4.50755 181.235 4.38665 181.41 4.30551C181.646 4.19474 181.854 4.41265 182.108 4.28885C182.304 4.19394 182.092 3.96802 182.605 4.02525C182.398 4.31793 182.188 4.62014 181.98 4.91644C181.855 4.85052 181.731 4.78358 181.606 4.71693C181.733 4.63869 181.857 4.56147 181.983 4.48323C181.538 4.62377 181.117 4.75631 180.657 4.90191C180.807 4.47884 180.331 4.63746 180.073 4.68745C179.67 4.7656 180.015 4.47443 179.751 4.52297C179.487 4.57225 179.203 4.89755 178.726 4.828C178.981 4.63968 178.633 4.4708 178.701 4.29696C178.768 4.12313 179.273 4.08464 178.788 3.89495C177.856 4.03911 178.867 4.7011 178.238 4.80835C177.482 4.93729 177.302 3.85819 177.527 3.62622C177.705 3.44366 178.315 3.48038 178.493 3.29854C177.401 2.97038 177.391 3.61821 177.204 3.74499C176.525 4.20642 176.981 2.97483 176.178 3.4203C176.193 3.18998 176.205 2.98284 176.22 2.76194C176.081 2.80396 175.989 2.85979 175.822 2.8931C176.316 3.34185 175.911 3.32262 175.704 3.32332C175.377 3.32477 175.882 3.54365 175.795 3.60016C175.562 3.75137 175.192 3.68271 175.419 3.88042C175.317 3.78841 175.207 3.69614 175.102 3.60486C174.72 3.7195 173.822 4.68078 174.677 4.48665C174.597 4.8438 174.321 4.67214 174.105 4.61781C173.889 4.56353 173.893 4.79098 173.703 4.74897C172.949 4.58089 173.443 4.19181 173.562 3.88683C172.566 4.0969 173.541 4.23589 172.105 4.37643C171.966 4.62491 172.63 4.89006 172.077 5.0335C171.976 4.60182 171.569 4.29171 170.776 4.14829C170.699 4.24754 170.622 4.34767 170.545 4.44692C170.112 4.04847 170.334 3.63414 169.532 4.12821C169.962 3.21905 169.667 3.80069 168.949 3.43055C168.804 3.35593 169.14 3.16731 168.937 3.07168C168.845 3.02856 168.621 3.17094 168.396 3.061C168.286 3.00667 167.772 2.65611 167.416 2.82261C167.677 3.26307 167 3.63778 167.58 4.00218C166.508 3.91235 165.758 4.12383 166.959 3.52326C166.687 3.38996 166.415 3.25723 166.143 3.12466C165.953 3.2297 165.762 3.33392 165.571 3.43824C165.542 3.07623 165.571 2.97468 164.824 3.03836C165.148 2.95291 165.471 2.86605 165.796 2.77989C165.807 2.70678 165.852 2.63081 165.842 2.55987C165.443 2.6989 164.32 2.75875 164.048 2.85508C163.776 2.95143 164.301 2.9778 164.223 3.07125C163.57 3.84188 163.622 3.27352 163.154 3.40577C162.879 3.48401 163.535 3.56897 163.388 3.60229C162.843 3.72443 162.59 3.31487 162.106 3.30965C162.278 3.54212 162.448 3.77821 162.616 4.01286C162.109 4.00054 161.544 3.99848 161.072 4.0731C160.887 4.10223 161.027 4.27512 160.997 4.28671C160.847 4.34612 160.237 4.44021 160.172 4.44094C159.686 4.44232 159.672 4.20284 159.199 4.18973C159.385 4.16945 159.559 4.15118 159.741 4.13163C159.823 3.74337 159.907 3.35514 159.99 2.96616C159.526 2.93791 159.063 2.91024 158.599 2.88199C158.938 3.01165 159.279 3.14069 159.618 3.27034C159.088 3.58401 158.557 3.8984 158.027 4.2128C157.75 4.02011 157.475 3.82746 157.199 3.63476C156.449 3.68559 156.6 4.4678 156.244 3.78258C156.023 3.84051 155.802 3.8984 155.58 3.95561C155.612 3.85784 155.643 3.75987 155.675 3.66211C155.408 3.72223 155.142 3.78197 154.875 3.84282C155.155 4.18907 155.43 4.55342 155.708 4.88952C155.183 4.96476 155.173 4.67103 155.095 4.59773C154.887 4.40358 154.475 4.66546 154.31 4.48579C154.255 4.42411 154.769 4.23075 154.592 4.00773C154.557 3.9645 153.869 3.14471 153.429 3.334C153.438 3.48251 153.471 3.66461 153.489 3.82616C152.899 3.91636 152.597 3.14115 152.676 2.92386C152.361 3.07598 151.901 3.08869 151.836 3.32631C151.675 3.3321 151.516 3.3376 151.355 3.3434C151.523 2.7647 150.852 2.87051 150.808 3.36817C151.084 3.38049 151.361 3.39345 151.637 3.40577C151.428 4.01575 152.268 4.38393 150.521 3.8189C150.187 3.50159 151.114 3.86213 150.842 3.62451C150.37 3.48621 149.926 3.60192 149.476 3.38099C148.917 3.10499 149.605 2.83954 148.302 3.19088C151.176 4.07106 147.908 3.78548 146.558 4.05857C146.187 3.18923 145.047 2.91388 143.478 3.1725C143.641 3.41445 144.135 3.2898 144.42 3.36946C144.704 3.44913 144.396 3.59267 144.751 3.70568C145.105 3.81866 145.858 3.97225 146.217 4.14316C145.913 4.2801 144.413 4.60384 145.405 4.21493C144.664 3.9752 144.317 3.72883 143.399 3.68389C143.124 4.06131 143.144 4.29633 142.25 4.30721C142.779 3.78275 141.762 3.41825 141.986 2.87644C142.62 3.00263 142.266 3.52925 142.633 3.7813C142.67 3.80649 143.261 3.67448 143.399 3.68389C142.802 3.21083 142.596 3.03475 142.963 2.47186C142.541 2.52112 142.279 2.45045 142.24 2.71922C142.152 2.60262 142.064 2.48592 141.977 2.36932C141.84 2.37222 141.716 2.38302 141.571 2.38086C141.771 2.78628 141.382 2.5367 141.106 2.7205C140.83 2.90451 141.201 3.22455 140.442 3.2289C140.695 3.3238 140.926 3.40523 141.171 3.49506C140.682 3.59937 140.191 3.70434 139.702 3.80864C140.045 4.05636 140.79 4.42432 140.769 4.75025C140.544 4.6272 139.772 4.84345 139.688 4.85235C139.36 4.88568 139.539 4.68013 139.514 4.67505C139 4.57517 138.577 4.64515 138.382 4.3337C137.995 4.47423 137.704 4.39411 137.295 4.40206C137.069 4.4064 137.113 4.63516 136.981 4.59175C136.104 4.30199 136.94 4.00637 135.248 4.5691C135.453 4.72846 135.655 4.89149 135.86 5.05229C135.669 5.11242 135.479 5.17288 135.288 5.23301C135.16 5.20403 135.033 5.17483 134.906 5.14586C134.908 4.80033 134.912 4.45408 134.914 4.10855C134.774 4.08972 134.633 4.07142 134.493 4.05259C134.734 4.01854 134.975 3.98453 135.215 3.95048C135.237 3.88968 135.258 3.82885 135.28 3.76806C134.923 3.67388 134.566 3.57885 134.209 3.48395C134.202 3.60415 134.195 3.72519 134.189 3.84538C133.383 3.67804 133.364 3.57629 132.598 3.90733C132.009 3.90371 131.529 4.40627 131.188 4.61781C131.066 4.55045 130.943 4.48223 130.819 4.41487C130.741 4.51485 130.662 4.61438 130.584 4.71436C130.428 4.57528 130.271 4.43617 130.116 4.29781C130.029 4.6135 129.984 4.71206 130.59 4.82287C130.383 5.21551 129.316 5.0423 128.881 4.91045C128.552 4.8104 128.918 4.48291 128.876 4.44307C128.739 4.30773 128.196 4.42451 128.082 4.40206C127.599 4.30861 127.261 4.32497 126.826 4.25253C126.741 4.23803 126.504 4.03047 126.484 4.02396C126.327 3.98846 125.94 3.88758 125.896 3.88469C123.627 3.72975 126.052 4.63023 123.942 4.53535C124.005 4.6541 124.063 4.77205 124.125 4.8908C123.966 4.89804 123.805 4.90492 123.645 4.91216C123.443 4.81292 123.688 4.63243 123.286 4.77801C123.313 4.63168 123.339 4.48529 123.366 4.33968C123.192 4.41865 123.024 4.49697 122.845 4.57594C122.564 4.06812 121.541 3.95279 121.614 3.35664C121.638 3.15379 122.364 2.94565 121.981 2.72904C121.669 2.6864 121.88 2.92866 121.753 2.94137C120.835 3.02976 120.888 2.69018 120.513 2.78074C120.454 2.92627 120.392 3.07465 120.331 3.22163C120.19 3.17891 120.048 3.13619 119.905 3.09347C119.872 3.19127 119.838 3.28917 119.805 3.38697C119.938 3.39349 120.088 3.4001 120.21 3.40662C120.04 3.78542 118.473 3.95557 119.071 3.63262C119.314 3.50152 119.759 3.55722 119.478 3.1097C119.059 3.17417 118.583 3.24004 118.142 3.30452C118.128 3.20816 118.115 3.11164 118.102 3.01528C117.507 3.07765 118.048 3.46289 118.047 3.66936C117.911 3.67516 117.773 3.68023 117.637 3.68603C117.58 3.59267 117.525 3.49495 117.464 3.40449C117.459 3.55306 117.383 3.89839 116.977 3.77019C116.717 3.68675 117.127 3.31192 116.63 3.3639C116.667 3.59568 116.847 3.87797 116.293 3.95261C116.238 3.71071 116.162 3.4891 116.12 3.23488C115.431 3.46727 115.118 3.09371 114.31 3.3639C113.797 3.53488 113.095 4.14179 112.764 3.20668C112.389 3.18206 112.508 3.41493 112.397 3.46729C111.873 3.71505 111.484 3.27164 111.386 3.24556C110.764 3.07838 110.485 3.23187 109.978 3.02255C110.005 3.19569 110.02 3.35958 110.042 3.52838C110.507 3.26903 110.742 3.2812 111.393 3.33698C111.175 3.37175 110.956 3.40732 110.738 3.44208C110.774 3.58258 110.809 3.72312 110.843 3.8629C112.858 3.30942 112.388 4.18389 110.699 4.37514C110.553 4.11511 110.402 3.85578 110.258 3.59503C109.282 3.98911 108.823 3.647 107.72 3.56512C107.588 3.55576 107.111 3.70555 106.905 3.71294C106.909 3.71394 106.912 3.71493 106.915 3.71593C106.788 3.96148 106.961 4.07449 106.981 4.29397C106.87 4.32149 106.759 4.3489 106.647 4.37642C106.399 4.20912 106.486 4.07171 105.997 4.11154C106.063 4.27815 106.128 4.44479 106.194 4.61139C105.658 4.61719 105.307 4.43617 104.808 4.51441C104.892 4.45139 104.975 4.38818 105.059 4.32515C103.973 4.16433 104.837 3.1848 104.017 3.67235C103.964 3.5869 103.913 3.50062 103.861 3.41517C104.199 3.39416 104.537 3.3738 104.874 3.35279C104.881 3.23186 104.888 3.11144 104.894 2.9905C104.532 3.02673 104.169 3.06408 103.808 3.1003C104.072 3.01916 104.337 2.93792 104.601 2.85678C104.182 2.79883 103.763 2.74085 103.343 2.6829C103.789 3.1276 103.211 3.18199 103.32 3.62237C102.578 3.2558 101.995 2.77259 100.844 3.08193C100.616 3.14355 100.74 3.4513 100.093 3.0768C100.25 3.56646 99.4387 3.79624 99.5429 4.26192C99.7682 4.23947 100.002 4.22535 100.22 4.19784C99.9716 4.0363 99.9304 3.5919 100.308 3.46002C100.791 3.29196 101.494 3.59995 101.465 3.10671C101.658 3.12988 101.837 3.14355 102.024 3.1631C101.947 3.28546 101.871 3.40859 101.796 3.53094C102.327 3.33911 102.662 3.4015 102.917 3.70995C102.284 3.78093 101.652 3.85117 101.018 3.92143C101.111 3.9424 101.206 3.96354 101.299 3.9838C100.82 4.29894 101.314 4.59742 100.42 4.6648C100.425 4.52067 100.429 4.37644 100.435 4.23159C100.109 4.617 99.2174 4.61491 99.5019 5.05827C99.2325 4.92209 99.1776 4.83595 99.0251 5.07493C98.3145 4.73806 97.8581 4.31207 98.111 3.80351C97.8472 3.88536 97.5832 3.96732 97.3207 4.04917C97.4732 4.18823 97.6259 4.32665 97.7785 4.46571C97.3194 4.45702 96.857 4.44847 96.3993 4.4405C96.3553 4.02908 97.2829 4.31568 97.0153 3.94791C96.9617 3.87409 96.7147 4.03222 96.6498 3.99064C95.9654 3.5408 97.0399 3.8658 96.8381 3.52112C95.8182 3.41462 96.6343 2.83708 95.2296 3.32246C95.1926 3.20367 95.1527 3.0825 95.1183 2.96444C94.6307 2.95731 94.6702 3.22562 94.2511 3.27632C93.9886 3.30786 93.6592 2.83672 93.3693 3.15755C93.3176 3.2167 93.8053 3.79254 92.7804 3.7672C91.985 3.74756 92.3161 3.34061 91.8861 3.19642C91.4559 3.05226 90.4718 3.61652 90.1818 2.97683C90.4071 3.06156 90.6942 3.10727 90.9443 3.17677C91.0459 3.05219 91.145 2.92895 91.2453 2.80509C90.6735 2.9659 90.0825 2.77636 89.6977 3.07338C88.9348 2.61916 88.0818 3.04068 88.3127 3.55358C88.5638 3.47963 88.2906 3.25598 88.6393 3.3985C88.675 3.51804 88.7127 3.63698 88.7485 3.75652C88.1547 3.74203 87.7423 3.74538 88.0131 3.38099C87.921 3.37229 87.8298 3.36362 87.7377 3.35492C87.7212 3.61862 87.7066 3.8833 87.6901 4.147C87.5802 4.1767 87.4697 4.20616 87.3598 4.23586C87.2375 4.17794 87.115 4.11935 86.9914 4.0607C87.1577 3.64342 87.441 3.62964 86.5036 3.39637C86.5008 3.54053 86.4968 3.68412 86.4941 3.82829C85.7093 3.64502 85.6886 3.29579 84.7033 3.30878C85.4592 2.80825 85.8728 3.69551 85.87 2.69144C86.0597 2.75737 86.2509 2.82418 86.4406 2.8901C86.4695 2.74449 86.4981 2.59867 86.5256 2.45305C85.5072 2.52986 83.8155 3.48749 83.1337 2.85251C83.0513 2.93 82.9685 2.99736 82.8847 3.08065C82.2167 2.69741 81.9283 3.5578 81.2507 3.06228C81.1808 3.01027 81.327 2.20193 80.445 2.2309C80.467 2.33596 80.4784 2.51278 80.4963 2.6453C80.3053 2.58085 80.1153 2.5134 79.9257 2.4475C79.8914 2.54453 79.8553 2.64153 79.821 2.73929C80.1467 2.77696 80.4715 2.81526 80.7973 2.85294C80.5266 2.88625 80.2542 2.91959 79.9836 2.95291C80.3367 3.1115 80.496 3.11319 80.2831 3.36731C79.9766 3.38253 79.6697 3.39867 79.3632 3.41388C79.3316 3.47899 79.3003 3.54486 79.2687 3.60998C79.4172 3.80411 79.5671 3.99397 79.7155 4.191C78.917 4.03236 78.2228 4.02374 77.6098 3.64202C77.5054 3.57755 77.8748 3.32462 77.163 3.55273C77.152 3.41878 77.1329 3.31 77.1205 3.18617C76.2492 3.56143 75.9629 3.44942 75.0544 3.17848C75.6427 3.43131 75.1178 3.26687 74.968 3.40235C74.8653 3.49568 75.266 3.48189 75.2207 3.57964C75.1753 3.67671 74.6547 4.06867 75.0998 4.11581C76.1911 3.3124 76.4884 4.27295 77.8903 3.88682C77.6745 3.99042 77.4572 4.09424 77.2414 4.19784C77.343 4.26805 77.434 4.33176 77.5439 4.40632C76.762 4.24915 77.1423 4.35126 76.821 4.47511C76.4994 4.59899 75.9148 4.70423 75.5231 4.73828C75.3998 4.74898 75.5299 4.56878 75.2514 4.55201C75.0618 4.54042 74.5434 4.80755 74.4238 4.49262C74.3454 4.28762 75.1781 3.72313 74.0268 3.72447C73.8101 3.5235 74.3621 3.58592 74.374 3.5617C74.4743 3.32263 73.7665 3.14288 73.4394 3.32545C73.4129 3.34119 73.6712 3.52748 73.3903 3.60058C72.7237 3.77517 72.3387 3.56152 71.9072 3.27247C71.8604 3.61151 71.2995 4.01642 70.6013 3.89109C70.5656 3.98811 70.5315 4.08599 70.4958 4.18374C70.6042 4.13238 70.7126 4.08172 70.821 4.03037C70.9392 4.09122 71.0644 4.13552 71.1799 4.20724C70.4777 4.29061 70.3784 4.75787 70.0417 4.92882C68.8895 5.51281 69.5878 4.27748 69.7956 4.06454C69.9454 4.15075 70.0903 4.24698 70.2387 4.33754C70.2222 4.21946 70.2055 4.10047 70.1904 3.98166C68.4655 3.98527 69.9277 3.21513 69.0522 2.99563C68.8268 3.5766 68.1838 3.63259 67.3647 3.26392C67.274 3.26682 67.183 3.26756 67.0922 3.27119C67.0771 3.3559 67.0774 3.48538 67.0527 3.54119C66.0659 3.63972 65.89 2.74502 65.7966 2.66026C65.3816 2.28433 65.0583 2.80447 64.936 2.80893C64.4206 2.82704 64.2708 2.59608 63.7802 2.69529C63.2526 2.80248 63.6134 2.97969 63.4529 3.13832C63.3241 3.26429 62.9078 3.28673 62.7358 3.4173C62.8041 3.3105 62.8801 3.20578 62.9482 3.09859C62.4013 2.953 61.9543 2.8111 61.3332 2.77561C60.6323 3.557 60.036 2.23889 60.2778 3.30793C60.8661 3.3811 61.195 3.50292 61.5097 3.77531C61.1236 3.81008 60.7372 3.84393 60.351 3.8787C60.2384 3.76137 60.1584 3.64702 60.0251 3.52752C59.7365 3.77668 59.0675 3.66976 58.8049 3.74284C57.5748 4.0855 57.9553 4.5105 56.8325 3.79625C57.6418 3.72665 57.6405 3.37975 58.4431 3.42755C58.2699 3.1798 57.8621 3.23113 58.126 2.93411C57.3495 3.00727 57.6005 3.27245 57.2983 3.50787C57.0377 3.71082 56.5128 3.72219 56.5425 3.98593C56.4888 3.84092 56.4473 3.70054 56.3938 3.55572C55.8908 3.55717 55.3879 3.55726 54.885 3.55871C55.0994 3.40732 55.3137 3.25566 55.5281 3.105C55.366 3.04782 55.2038 2.99086 55.0417 2.93368C53.8047 3.40456 51.6717 2.54155 52.0124 3.72447C51.416 3.76214 51.3414 3.61378 51.0171 3.38995C50.9814 3.47976 50.9466 3.55446 50.9109 3.65441C50.5261 3.5604 50.2308 3.89756 49.8914 3.80992C49.5519 3.72295 49.4677 3.40448 49.4182 3.93979C49.1983 3.78624 48.9797 3.65868 48.7612 3.51599C48.6294 3.6376 48.4976 3.75781 48.3672 3.8787C48.161 3.81495 47.9544 3.75147 47.7483 3.68773C47.6381 3.94326 46.8275 3.83312 46.4702 4.00473C46.131 3.72928 46.1403 2.862 45.3423 3.01741C45.3629 3.23252 45.3832 3.44699 45.4038 3.6621C45.221 3.61719 45.0379 3.57243 44.8538 3.52752C44.8428 3.45731 44.8332 3.3871 44.8223 3.3169C44.9157 3.33863 45.0079 3.36024 45.1013 3.38269C45.0202 3.26388 44.9408 3.14562 44.8611 3.02681C44.5821 3.20282 44.3028 3.37885 44.0225 3.55486C44.4003 3.68813 44.7784 3.82148 45.1562 3.95474C44.6821 4.11267 44.352 3.95515 43.9397 4.13119C43.581 3.83422 43.7135 3.6631 43.8591 3.34082C43.7259 3.36834 43.591 3.39491 43.4578 3.42242C43.5457 3.1001 43.3203 2.90805 44.0994 2.9341C44.0458 2.84217 43.9912 2.75452 43.939 2.65897C43.8112 2.67346 43.7283 2.59575 43.5881 2.6312C43.206 2.72828 42.9131 3.29442 42.9392 3.49291C42.9533 3.59689 43.33 3.39804 43.3149 3.54504C43.2777 3.90349 42.4134 3.74255 43.6599 4.10256C43.2462 4.33076 43.1538 4.15867 42.6975 4.09274C42.7332 4.21219 42.7679 4.33088 42.8022 4.45033C42.5907 4.39529 42.3788 4.34045 42.1672 4.28542C42.4614 3.67184 40.9014 3.44138 42.3057 2.90463C41.8907 2.8771 41.4771 2.84943 41.0635 2.82046C41.1487 2.75745 41.2339 2.69507 41.3191 2.63206C41.506 2.66538 41.6918 2.69815 41.8787 2.73075C41.6588 2.61559 41.4386 2.50113 41.2188 2.38597C40.6992 2.52869 40.4956 2.74818 40.2578 3.01912C40.8624 3.21684 40.6649 2.94676 41.136 2.89309C41.1195 3.06467 41.1413 3.2225 41.1001 3.40277C40.8567 3.04736 40.0626 3.30592 39.8784 3.32331C39.318 3.3761 39.7575 3.02689 39.3826 3.01955C39.0074 3.0123 38.5648 3.22015 38.2583 2.87387C38.2638 3.06796 38.2883 3.26877 38.3103 3.44549C37.7262 3.50924 37.8427 3.27995 37.7822 3.25025C36.8174 2.76199 36.2939 3.1742 35.1902 3.22419C35.3304 3.28431 35.472 3.33858 35.6135 3.39508C34.7809 3.80717 35.3418 3.68099 36.0647 3.81718C35.3871 3.77588 34.9991 4.12684 34.5208 4.23116C34.0425 4.3353 33.2224 4.15505 32.9226 4.01456C33.6085 3.78853 34.3482 3.93758 35.1096 3.87528C35.0231 3.67756 34.9389 3.51022 34.8496 3.29297C34.3865 3.70796 34.1181 3.43048 33.9656 3.37543C33.5176 3.21395 33.5317 3.57013 33.261 3.18702C33.272 3.31882 33.28 3.42963 33.291 3.55273C32.3661 3.49767 31.3684 3.26467 30.7664 3.75138C30.7114 3.43483 30.6699 3.12986 30.6067 2.80679C30.2151 3.04508 29.8796 2.80106 29.5498 2.85678C29.2213 2.91256 29.3464 3.16838 28.9602 3.26691C28.8888 3.28502 28.7399 3.1249 28.564 3.24299C28.3863 3.3617 27.7312 4.24434 27.6529 3.47326C27.3216 3.46963 27.0082 3.44144 26.6839 3.4284C27 3.38494 27.3162 3.34284 27.6309 3.29938C27.3615 3.1125 27.0938 2.92617 26.8245 2.73929C26.7901 2.90591 26.7557 3.07555 26.7227 3.24C25.997 3.44284 25.4704 3.17041 24.7378 3.23487C24.6155 3.24574 24.9041 3.57516 24.3614 3.4912C23.8185 3.40717 23.4156 2.79231 22.4908 3.0298C22.444 3.04212 22.1701 3.51302 21.8389 3.18702C21.7635 3.11313 22.0808 3.00381 21.9077 2.90676C21.7346 2.80968 20.9619 2.72986 20.9014 2.49876C20.9096 2.5806 20.9579 2.6654 20.9812 2.74869C20.8493 2.7878 20.7161 2.82694 20.5828 2.86532C20.5704 2.72117 20.5571 2.57682 20.5447 2.43339C19.7861 2.7688 19.394 3.31593 18.2698 3.1349C18.5859 3.34424 18.9021 3.55443 19.2168 3.76377C19.3034 3.61671 19.3902 3.46866 19.4754 3.3216C19.9935 3.38027 20.513 3.43851 21.031 3.49718C21.1163 3.32984 21.2 3.16297 21.2852 2.99562C21.4226 3.01735 21.5587 3.03841 21.6961 3.06013C21.6617 3.18111 21.6271 3.30145 21.5913 3.42242C21.8634 3.39273 22.1358 3.3624 22.4065 3.3327C21.8554 4.04679 20.8675 3.27196 20.9388 3.8693C20.8165 3.77662 20.6941 3.68329 20.5718 3.58989C20.5182 3.87953 20.2696 3.79617 19.8313 3.75053C19.9317 3.89325 20.0425 4.03402 20.1346 4.17818C19.7085 3.97681 18.9527 3.99636 18.5115 3.91886C18.3177 3.88481 18.5113 3.67482 18.4537 3.65013C18.1582 3.52118 17.5933 3.88759 17.4751 3.85862C16.7687 3.68617 16.3097 2.9915 15.5386 3.44934C16.3344 3.56235 15.9015 3.51462 16.1846 3.7689C16.2732 3.84862 17.3013 4.01494 16.014 3.94107C15.863 3.93183 13.5271 3.45186 14.295 3.08406C13.917 3.20142 13.6211 3.33712 13.2747 3.46172C12.4281 2.49241 12.7211 3.40301 12.9671 3.90433C12.8283 3.9065 12.6962 3.91159 12.5533 3.91159C12.857 3.38492 11.3095 3.35222 10.7845 3.61809C10.6086 3.70647 11.1005 3.87505 10.6937 3.95474C10.4999 3.91781 10.2802 3.86998 10.0755 3.82871C10.3724 4.16193 9.78975 4.29034 9.79791 4.62933C9.42547 4.32726 9.14059 3.687 9.34527 3.33997C9.03745 3.48048 8.72804 3.62082 8.42022 3.76206C8.56316 3.84247 8.70795 3.92218 8.85089 4.00259C7.8448 3.7896 6.55117 4.27425 6.34088 3.56212C6.20756 3.56719 6.07283 3.57158 5.93951 3.57665C5.89828 3.69691 5.85843 3.81739 5.8172 3.93765C5.21397 3.83336 4.61209 3.72837 4.00885 3.62407C4.54598 3.54944 4.67384 3.37827 5.23712 3.51726C5.02006 3.37895 4.79895 3.23988 4.586 3.10157C3.73799 3.47393 3.62231 3.71866 2.34553 3.60783C2.2878 3.60276 1.32309 3.2905 1.29011 3.26007C1.13898 3.12099 1.36839 2.91894 1.30109 2.84866C1.11417 2.65161 -0.0216755 2.15683 0.000315517 2.08221C0.277955 1.16651 4.09954 1.15438 5.13312 1.10729C15.8536 0.619038 26.3381 1.27226 36.9912 1.16069C37.1007 1.15897 37.0529 1.02379 37.0996 1.018C37.3896 0.98405 37.6743 1.19472 37.7815 1.20342C38.0105 1.22133 37.8844 1.02668 38.0518 1.02655C39.7808 1.02872 41.4124 1.14318 43.1428 1.10985C43.2555 1.10768 43.1405 1.26341 43.3384 1.23589C43.4405 1.22081 43.7604 0.981886 43.991 0.978269C44.7964 0.965959 45.4729 1.04256 46.3223 1.03893C46.7868 1.03677 47.4837 1.05708 48.0032 1.05346C48.2326 1.05192 48.4716 0.942617 48.6982 0.938965C49.0198 0.933894 48.9542 1.15547 49.0037 1.16924C49.2208 1.22935 49.2509 0.986153 49.457 0.991941C49.8405 1.00353 49.8611 1.16591 50.3476 1.15215C50.6954 1.14201 51.4912 1.01381 51.9297 0.976134C52.955 1.16447 54.247 1.0897 55.2036 1.0274C55.7698 0.990469 55.8223 1.21781 56.0532 1.21709C56.8667 1.21269 57.4841 0.922322 58.2483 0.912905C59.2623 0.900637 60.161 1.09263 61.1435 1.10644C61.3028 1.10861 61.2663 0.900306 61.4226 0.894961C62.0012 0.875402 62.7411 0.83749 63.2566 0.867192C63.831 0.899834 64.0429 1.20219 64.6049 1.14062C64.7697 1.12233 64.818 0.857225 65.0942 0.823188C65.5353 0.769663 66.019 1.00344 66.3269 1.02954C66.7488 1.06431 66.3819 0.794229 66.9509 0.830451C66.9743 0.832015 67.0594 1.02508 67.1816 1.01587C67.5376 0.989787 67.5022 0.837751 68.0231 0.85224C68.0731 0.854241 68.7638 1.0382 68.8325 1.03894C69.2365 1.04183 70.0501 1.10624 70.2893 1.06713C71.1442 0.92804 70.4711 0.63766 71.1982 1.26793C71.5183 1.11366 71.8359 0.957302 72.1752 0.807381C71.9487 0.947198 72.868 1.14896 72.9326 1.13592C73.4669 1.03085 73.1486 0.785616 73.8261 0.826179C72.9314 1.3927 74.7002 0.899198 75.0947 0.884709C76.9941 0.81446 78.7206 0.955834 80.6296 0.952211C81.2686 0.950727 82.1251 0.830973 82.8012 0.83387C82.9588 0.834042 82.8397 0.968114 82.9784 0.971009C83.1168 0.972995 82.9633 0.822488 83.1213 0.830453C84.1039 0.882632 84.8739 1.16662 85.7741 0.811655C85.8179 0.862977 85.8165 0.90353 85.8891 0.959902C86.6258 0.6419 88.0445 1.06955 88.5778 1.12823C89.4119 1.21946 89.6249 1.00451 90.2309 1.04791C91.0322 1.10586 92.2352 1.52579 91.6979 0.83259C92.2476 0.810865 92.7768 0.804866 93.3319 0.869331C93.3937 0.876638 93.3512 1.05283 93.3759 1.05646C93.5325 1.08175 93.5835 0.923997 93.6894 0.916753C93.9763 0.897267 93.5081 1.08616 93.9172 1.03339C94.1329 1.00513 94.2554 0.86754 94.8547 0.864631C98.4666 0.849419 102.388 0.898698 106.091 0.921881C106.345 0.92333 106.178 0.752941 106.496 0.763808C107.604 0.801514 109.587 1.08827 110.542 1.04919C111.498 1.01008 111.282 0.760907 111.88 0.656574C111.995 0.63629 111.901 0.778296 112.005 0.78047C112.707 0.793522 113.545 1.01502 114.114 1.04834C114.49 1.07067 114.46 0.847268 114.721 0.83131C115.11 0.808127 115.51 1.03383 115.718 1.04108C116.693 1.0729 117.364 0.89111 118.275 0.983829C118.24 0.934664 118.216 0.88915 118.186 0.840709C119.265 0.848677 120.342 0.856666 121.421 0.864634C121.37 0.819718 121.321 0.774417 121.27 0.728777C122.536 0.753426 122.391 1.24023 122.28 0.212261C122.372 0.176047 122.47 0.13407 122.558 0.100756C122.522 0.630291 123.288 1.01781 124.262 1.15258C124.334 1.16273 124.813 0.646414 124.761 1.2564C124.886 1.10717 124.96 1.0043 125.066 0.873179C125.272 1.05786 125.481 1.24035 125.687 1.4243C125.799 1.39678 125.912 1.37022 126.023 1.3427C126.039 1.22317 126.027 1.09905 126.062 0.981694C126.579 0.963585 127.639 1.11136 128.047 1.09619C129.062 1.05779 130.094 0.734617 130.883 1.0838C131.267 1.0482 130.886 0.81359 131.457 0.843274C131.522 0.962054 131.583 1.0759 131.65 1.1983C132.117 0.667587 132.215 0.990432 132.855 1.10132C133.288 1.17665 133.571 1.04694 133.983 1.07227C134.088 1.07879 134.073 1.23456 134.145 1.22949C134.384 1.21342 135.067 0.999023 135.236 0.99323C136.767 0.936736 138.082 0.960783 139.54 1.01801C139.697 1.0238 139.494 0.870078 139.656 0.876598C139.917 0.886833 139.763 1.12305 139.915 1.13464C140.336 1.16564 140.339 0.91655 140.928 0.903513C142.864 0.860799 145.091 1.04792 147.114 1.06458C147.177 1.06458 147.173 0.918634 147.242 0.917185C147.69 0.910049 148.143 1.10733 148.55 1.10516C149.225 1.10227 149.732 0.897236 150.399 0.89796C151.701 0.898684 152.866 1.00367 154.206 1.00947C155.302 1.01454 156.255 0.995071 157.458 0.995795C162.711 0.998693 168.071 0.535444 173.36 0.781757C173.494 0.788272 173.44 0.917217 173.481 0.911633C173.871 0.855853 173.906 0.68187 174.045 1.04621C174.542 0.974405 174.699 0.700681 175.299 0.720236C175.619 0.730489 175.38 1.15474 175.922 0.935985C176.411 0.73823 175.871 0.505724 177.325 0.743307C177.364 0.749838 177.553 1.00843 177.855 0.941112C178.159 0.874463 177.808 0.689293 178.539 0.63351C180.255 0.503124 182.428 0.726657 184.424 0.657863C184.549 0.653516 185.753 0.515265 185.991 0.451513C186.451 0.327638 186.355 0.135469 186.953 0.0883719C187.415 0.0521495 187.796 0.269832 188.339 0.226366C188.402 0.221082 188.508 -0.00282976 188.916 0.026852ZM87.7392 4.37599C87.6265 4.59569 87.4231 5.40433 86.7416 5.15824C86.677 5.13506 87.0257 4.57896 86.6493 4.49049C87.0177 4.43181 87.3764 4.4128 87.7392 4.37514C87.7392 4.37542 87.7392 4.37571 87.7392 4.37599ZM191.87 5.18303C191.36 5.14246 190.848 5.10227 190.338 5.0617C190.69 4.9639 191.042 4.86629 191.393 4.76777C191.552 4.90611 191.71 5.04469 191.87 5.18303ZM128.394 4.79895C128.394 4.79895 128.395 4.79895 128.395 4.79895C127.859 4.90327 127.323 5.00778 126.787 5.1121C126.843 5.03531 126.9 4.95819 126.956 4.8814C127.379 4.76044 127.803 4.63965 128.224 4.51869C128.281 4.61212 128.337 4.70552 128.394 4.79895ZM132.629 3.98594C132.971 4.07722 132.887 4.23116 133.075 4.38112C133.075 4.38084 133.075 4.38055 133.075 4.38027C133.125 4.41931 133.356 4.45347 133.446 4.45931C133.413 4.36295 133.37 4.26784 133.335 4.17221C134.133 3.93894 135.695 4.76788 133.673 5.10185C133.703 4.98017 133.732 4.85911 133.762 4.73743C132.758 4.77147 131.638 4.50754 132.629 3.98594ZM79.6606 4.72632C78.8029 5.12476 78.5279 5.20877 77.4875 4.93566C77.6345 4.82272 77.7814 4.7098 77.9284 4.59687C78.1002 4.71205 78.2708 4.82645 78.4426 4.94164C78.4431 4.94164 78.4435 4.94164 78.444 4.94164C78.4784 4.82066 78.5129 4.69947 78.5458 4.5785C78.9169 4.62775 79.2895 4.67706 79.6606 4.72632ZM165.459 4.27389C165.698 5.06967 165.629 4.60712 164.946 4.78656C164.709 4.84886 164.94 4.9881 164.793 5.01128C163.999 5.13791 163.935 4.60474 164.112 4.3273C164.562 4.30846 165.016 4.29128 165.457 4.27389C165.458 4.27389 165.458 4.27389 165.459 4.27389ZM186.064 4.10856C186.064 4.10856 186.065 4.10856 186.065 4.10856C186.086 4.30266 185.766 4.35487 186.127 4.53877C185.852 4.53805 185.577 4.53651 185.301 4.53578C185.382 4.5177 185.465 4.50046 185.546 4.48238C185.474 4.41573 185.403 4.34823 185.331 4.28158C185.234 4.50469 185.143 4.375 184.855 4.30038C184.934 4.53872 185.014 4.77722 185.093 5.01556C184.758 4.94458 184.421 4.87335 184.086 4.80237C184.082 4.74231 184.078 4.68215 184.074 4.62208C183.947 4.69884 183.822 4.77645 183.696 4.85321C183.661 4.78151 183.628 4.71045 183.594 4.63874C183.441 4.69306 183.289 4.74733 183.136 4.80237C183.09 4.62867 183.426 4.5536 182.83 4.59773C183.013 4.41954 183.195 4.24189 183.379 4.0637C184.274 4.07819 185.169 4.09334 186.064 4.10856ZM159.247 4.51869C160.232 4.48537 159.955 4.61125 159.727 5.0053C159.567 4.84307 159.406 4.68092 159.247 4.51869ZM108.477 4.16794C108.191 4.43671 107.904 4.70279 107.611 4.96215C107.028 5.11211 106.445 4.62223 106.884 4.43025C107.412 4.1999 107.963 4.45771 108.477 4.16794ZM95.204 4.28756C95.917 4.41219 95.2462 4.73155 95.0854 4.91771C94.8881 4.61851 94.6131 4.64491 94.1713 4.61011C94.5861 4.59071 95.0861 4.2664 95.204 4.2867C95.204 4.28699 95.204 4.28727 95.204 4.28756ZM119.951 4.46998C120.237 4.46195 120.521 4.38688 120.776 4.4781C120.699 4.7351 120.188 4.50129 120.554 4.88226C120.371 4.88878 120.188 4.89509 120.007 4.90234C120.122 4.74449 119.967 4.62652 119.952 4.47084C119.952 4.47055 119.951 4.47027 119.951 4.46998ZM149.699 4.82159C149.138 4.51733 149.032 4.64752 148.467 4.85833C148.387 4.6106 149.061 4.19563 149.483 4.10428C149.554 4.34333 149.626 4.58254 149.699 4.82159ZM17.0599 4.6947C17.1945 4.37893 18.1879 4.33775 18.6814 4.4311C18.6227 4.47793 18.5637 4.52539 18.5049 4.57294C18.0239 4.61351 17.5409 4.65413 17.0599 4.6947ZM93.9611 4.58875C94.035 4.598 94.1051 4.6049 94.1713 4.61011C94.0977 4.61355 94.0267 4.60817 93.9611 4.58875ZM64.1047 3.21821C64.3396 2.9205 63.6413 2.82047 64.4892 2.9371C64.4892 2.93681 64.4892 2.93653 64.4892 2.93624C65.05 3.01303 65.1738 3.03354 65.6933 3.05672C65.5063 3.43917 64.4523 3.57587 65.905 3.65483C65.9241 3.65518 65.886 3.42761 66.1181 3.45874C66.1898 3.46842 66.4191 3.65519 66.7678 3.70952C66.8805 3.72691 67.7274 3.78451 66.573 3.78813C66.6073 4.05473 66.5453 4.32457 66.5481 4.58319C66.0974 4.65836 65.7511 4.13633 65.2744 4.14913C64.5665 4.16942 64.2064 4.6973 64.0703 4.00473C64.6654 3.83457 65.6875 3.83048 65.8208 4.24697C66.3966 4.25204 66.5619 3.91081 66.0976 3.74199C64.1088 3.95642 65.5517 3.23548 63.8103 3.50787C63.7897 3.60419 63.718 3.70785 63.729 3.79838C63.1974 3.45942 64.0209 3.32469 64.1047 3.21821ZM68.2634 3.95475C67.9198 4.15832 67.5773 4.36352 67.2351 4.56781C67.2351 4.23603 67.4238 3.93829 67.9653 3.75139C68.0642 3.81943 68.1645 3.88743 68.2634 3.95475ZM39.3591 4.0419C39.3097 4.22228 39.1778 4.38758 39.0815 4.55927C38.9771 4.40714 36.5031 4.26119 37.7617 4.11196C37.9445 4.09023 39.0595 4.40919 39.3591 4.0419ZM153.593 4.54988C153.301 4.4289 153.011 4.30772 152.721 4.18674C153.167 4.10999 153.614 4.03124 154.061 3.95305C153.904 4.15194 153.749 4.35098 153.593 4.54988ZM103.734 3.85136C103.857 3.85813 103.448 4.10621 103.933 4.06711C103.572 4.22576 103.233 4.36005 102.88 4.50929C102.774 4.39193 102.667 4.27504 102.561 4.15768C102.479 4.23302 102.395 4.30791 102.312 4.38326C102.362 4.21229 102.406 4.04531 102.458 3.87144C103.053 4.23801 103.189 3.82238 103.734 3.85136ZM121.43 3.18276C121.537 3.55433 120.675 3.77529 121.523 3.8347C121.362 4.07882 121.103 4.20687 120.607 4.2286C120.528 4.13524 120.448 4.04256 120.369 3.9492C120.358 4.19903 120.23 4.29189 119.951 4.46998C119.951 4.4697 119.951 4.46941 119.95 4.46913C119.196 4.48722 119.241 4.40392 119.06 3.9932C119.858 4.22502 119.882 3.84977 120.426 3.62664C120.8 3.47321 121.288 3.5427 121.43 3.18276ZM41.9951 4.03763C41.4304 4.35128 41.9372 4.64384 40.9353 4.31062C40.9999 4.23093 41.0648 4.15192 41.1294 4.07223C41.418 4.05992 41.7066 4.04849 41.9951 4.03763ZM124.217 4.45631C124.152 3.88114 123.62 3.43341 123.53 4.36916C124.048 4.55969 123.795 4.02964 124.217 4.45631ZM95.4472 3.38697C96.4436 3.41381 96.2552 4.06298 95.8456 4.38753C95.7824 4.26944 95.7192 4.15115 95.6574 4.03379C95.4828 4.08739 95.3083 4.14111 95.1337 4.194C95.2382 3.92523 95.3427 3.65573 95.4472 3.38697ZM141.782 3.82445C141.021 4.23521 142.604 4.0529 142.072 4.30935C141.648 4.51435 141.088 4.10046 141.3 3.84111C141.447 3.83387 141.61 3.8288 141.781 3.82445C141.781 3.82445 141.782 3.82445 141.782 3.82445ZM137.376 3.94194C137.501 4.38081 137.321 4.25288 137.922 4.17392C138.094 4.15146 139.459 4.31629 138.886 3.95262C138.399 3.95262 137.883 3.94628 137.376 3.94194ZM83.9299 4.02909C83.9207 3.83797 84.9719 3.4183 85.1069 3.52325C85.1069 3.52297 85.1069 3.52268 85.1069 3.5224C85.4711 3.80855 84.3622 3.84921 84.8432 4.24184C83.7781 3.89634 83.4594 4.73205 83.5336 3.63091C84.1611 3.58261 83.864 3.80959 83.9299 4.02909ZM4.01691 3.79496C4.01642 3.79496 4.01593 3.79496 4.01545 3.79496C4.08604 3.80395 4.66772 4.08444 4.59699 4.1816C3.89748 4.0983 4.02214 3.91366 3.37092 4.21706C3.33521 4.11934 3.30463 4.02456 3.26618 3.92612C3.52457 3.86816 3.6678 3.75077 4.01691 3.79496ZM36.6843 3.65654C36.9414 3.60655 37.4104 3.81369 37.7031 3.80137C36.7713 4.5968 35.6577 3.85506 36.6843 3.65654ZM176.427 4.1359C176.426 4.13618 176.425 4.13647 176.424 4.13675C176.425 4.13632 176.425 4.13591 176.425 4.13547C176.426 4.13561 176.426 4.13576 176.427 4.1359ZM56.6011 4.13375C56.5679 4.08212 56.5492 4.03727 56.5425 3.9979C56.5425 3.99419 56.5425 3.99049 56.5425 3.98679C56.5604 4.03513 56.5794 4.08403 56.6011 4.13375ZM81.745 4.08676C81.3072 3.82022 82.766 3.39647 83.2377 3.49762C83.2048 3.61927 83.1996 3.72957 83.1227 3.8693C82.742 3.55426 81.8179 4.13167 81.745 4.08676ZM115.004 3.98893C113.851 3.98168 115.352 2.92927 115.414 3.76891C115.411 3.78518 115.034 3.9875 115.004 3.98893ZM90.8388 3.97654C91.1326 3.65791 90.5422 3.5733 91.4862 3.62835C91.5412 3.71088 91.5961 3.79361 91.651 3.87614C91.3804 3.90945 91.1095 3.94322 90.8388 3.97654ZM107.45 2.60728C105.999 2.78476 104.611 3.09787 105.556 3.97654C105.666 3.94832 105.777 3.92102 105.887 3.8928C105.904 3.46413 106.309 3.69813 106.902 3.71209C106.987 3.5419 107.316 3.50255 107.378 3.35792C107.497 3.07835 107.119 2.8818 107.45 2.60728ZM168.724 3.30495C168.7 3.37812 168.677 3.45167 168.654 3.52411C168.425 3.6067 168.194 3.68889 167.965 3.77148C168.002 3.63106 168.039 3.49065 168.076 3.35023C168.292 3.33503 168.507 3.31973 168.722 3.30452C168.723 3.30466 168.723 3.3048 168.724 3.30495ZM69.6777 3.05031C69.5459 3.85568 70.0066 3.70734 70.9411 3.30024C70.5205 3.21693 70.0983 3.13362 69.6777 3.05031ZM130.772 2.93368C130.802 3.16248 130.832 3.39058 130.863 3.61938C131.36 3.38104 131.267 3.11902 131.03 2.8162C130.943 2.85528 130.858 2.8946 130.772 2.93368ZM137.919 2.83628C137.713 2.78854 137.818 2.97328 137.796 2.96957C137.276 2.8725 137.202 2.78776 136.563 2.92685C136.485 2.97538 136.408 3.0264 136.329 3.07638C136.625 3.55581 136.839 3.29451 137.465 3.57623C137.352 3.41178 137.24 3.24711 137.127 3.08193C137.475 3.1167 137.821 3.15098 138.169 3.18575C138.21 3.13504 138.251 3.08479 138.292 3.03408C138.169 2.9689 138.041 2.89566 137.919 2.83628ZM171.378 3.51301C171.716 3.53184 172.056 3.55142 172.394 3.57025C172.406 3.45218 172.418 3.3333 172.43 3.21523C172.08 3.31446 171.728 3.41378 171.378 3.51301ZM62.7358 3.4173C62.709 3.45918 62.6829 3.50132 62.6596 3.54418C62.6619 3.49195 62.6912 3.45117 62.7358 3.4173ZM3.12482 3.14729C2.74142 3.06471 2.18893 3.11893 1.76838 3.10157C1.80144 3.39779 2.87033 3.31591 3.24567 3.49547C3.30598 3.44232 3.28689 3.18203 3.12482 3.14729ZM96.8256 3.41303C96.9218 3.26526 97.0179 3.11819 97.1127 2.97042C97.345 2.98636 97.5778 3.00319 97.8114 3.01913C97.8183 2.89814 97.8251 2.77611 97.8319 2.65513C96.8027 2.81231 97.04 2.46344 96.5304 2.11939C96.6294 2.55036 96.7267 2.98134 96.8256 3.41303ZM182.136 2.74571C181.392 2.82757 181.128 2.98047 181.548 3.3434C181.81 3.26011 182.074 3.17675 182.336 3.09347C182.269 2.97759 182.202 2.86159 182.136 2.74571ZM49.1941 3.14387C48.5719 3.27948 48.5615 2.79241 47.9534 3.06441C48.279 3.15422 48.6047 3.24503 48.9289 3.33484C49.0166 3.27134 49.1064 3.20738 49.1941 3.14387ZM79.7111 1.80623C79.4486 1.63679 78.9579 2.44224 78.2199 1.84767C78.044 2.02513 77.9338 2.19463 77.7827 2.36846C77.6947 2.17938 77.5948 1.98788 77.5109 1.80025C77.5104 1.80025 77.5099 1.80025 77.5095 1.80025C76.8401 1.864 77.2741 2.10114 77.259 2.30181C77.2519 2.385 76.7551 2.24594 76.9103 2.42699C77.1784 2.73778 78.1798 2.55907 78.1826 2.93795C77.8307 2.81412 77.1437 2.9176 77.3469 3.17036C77.5695 3.4478 78.217 2.98285 78.6293 3.21309C78.0385 2.60752 79.2588 2.79457 79.3976 3.25965C80.1137 2.90251 79.4555 2.75682 78.7216 2.77347C79.1697 2.41705 78.5102 2.60962 78.4016 2.31335C78.8636 2.13451 80.4491 2.28359 79.7111 1.80623ZM113.495 2.46288C113 2.48586 112.227 2.28214 111.888 2.58293C111.69 2.75818 112.465 2.89388 111.931 3.16908C112.413 3.14225 112.523 3.03475 112.441 2.79355C112.551 2.76459 112.662 2.73635 112.772 2.70811C112.823 2.75517 112.875 2.80161 112.926 2.84867C112.983 2.74943 113.041 2.65098 113.098 2.55174C113.215 2.57129 113.333 2.59086 113.449 2.61113C113.463 2.56123 113.486 2.5178 113.495 2.46288ZM31.3281 3.15882C31.4655 3.15593 31.6016 3.15305 31.739 3.14942C31.7239 3.09068 31.7059 3.02951 31.6885 2.96914C31.676 2.92143 31.6636 2.87372 31.6511 2.82602C31.7308 2.99646 32.3854 3.27975 32.6611 3.09773C32.7998 3.00642 32.4843 2.68223 33.072 2.62565C32.6461 2.64232 32.2515 2.68656 31.8379 2.71408C31.875 2.61773 31.9107 2.52035 31.9478 2.424C31.9475 2.42385 31.9473 2.42371 31.947 2.42357C31.8096 2.40184 31.6706 2.37908 31.5332 2.35735C31.4645 2.62467 31.3969 2.8915 31.3281 3.15882ZM130.369 2.48125C129.9 2.67033 129.743 2.76853 129.965 3.07424C129.965 3.07438 129.966 3.07453 129.966 3.07467C130.141 2.93922 130.315 2.80383 130.49 2.66838C130.45 2.60608 130.41 2.54356 130.369 2.48125ZM58.6987 2.40819C57.7023 3.56944 59.9463 2.85758 59.519 2.46202C59.4998 2.44391 58.7922 2.53642 58.6987 2.40819ZM95.2641 3.02981C95.5376 3.02039 95.8117 3.01188 96.0866 3.00247C96.0234 2.85975 95.9586 2.71753 95.8954 2.57481C95.6851 2.72622 95.4744 2.8784 95.2641 3.02981ZM178.898 2.21851C178.611 1.89975 177.872 1.78427 177.511 2.13093C177.7 2.1715 177.89 2.21212 178.08 2.25269C177.721 2.29252 177.366 2.33636 177.005 2.37402C176.986 2.81811 177.402 2.56048 178.029 2.68291C178.126 2.70265 178.747 3.25389 178.961 2.83842C179.004 2.75302 178.344 2.69496 178.803 2.44665C178.602 2.42711 178.429 2.43145 178.239 2.42059C178.226 2.31482 178.212 2.20893 178.197 2.10316C178.431 2.14146 178.664 2.18022 178.898 2.21851ZM110.613 2.49749C109.934 2.47298 109.85 2.65042 109.708 2.96402C110.024 2.92852 110.341 2.89356 110.657 2.85806C110.642 2.73812 110.628 2.61815 110.613 2.49749ZM172.822 2.11683C172.45 2.06554 172.61 2.3208 172.46 2.36932C171.894 2.55185 171.507 2.36942 170.948 2.48382C170.985 2.43456 171.019 2.38851 171.055 2.3407C171.054 2.3407 171.054 2.3407 171.053 2.3407C168.405 2.12556 169.796 2.70446 171.381 2.61028C171.418 2.70518 171.454 2.80021 171.491 2.89438C172.2 2.72849 172.854 2.56887 172.822 2.11683ZM67.5515 2.36846C67.5212 2.30906 67.7782 1.93155 67.2959 2.10828C66.9139 2.65946 67.5403 2.38589 67.6972 2.59788C67.5667 2.65076 67.4331 2.70222 67.3039 2.7551C68.0846 2.91086 68.1985 2.7798 67.914 2.37701C67.8937 2.34994 67.5818 2.42768 67.5515 2.36846ZM62.4209 2.09675C62.3137 2.90885 63.2989 2.54367 63.2632 2.29156C63.1272 2.28151 63.0214 2.41901 62.8772 2.35821C62.7315 2.29736 62.6942 2.10767 62.4209 2.09675ZM90.6476 2.29541C90.6188 2.29179 90.3288 1.95047 90.3576 2.21765C90.7163 2.8501 91.4391 2.44301 91.3127 2.22278C91.0736 2.23367 90.9142 2.32857 90.6476 2.29455C90.6476 2.29484 90.6476 2.29512 90.6476 2.29541ZM183.382 2.02712C183.369 2.00446 182.645 1.86727 182.552 1.99465C182.475 2.13806 182.437 2.29177 182.379 2.44024C182.778 2.3026 183.584 2.40745 183.381 2.02712C183.381 2.02712 183.382 2.02712 183.382 2.02712Z" fill="white"/>
</svg>
